<svg width="139" height="50" viewBox="0 0 139 50" fill="none" xmlns="http://www.w3.org/2000/svg">
<path d="M9.10751 25.9999C9.10751 23.4867 11.1455 21.4489 13.6602 21.4489C16.1748 21.4489 18.2139 23.4867 18.2139 25.9999C18.2139 28.513 16.1748 30.5509 13.6602 30.5509C11.1455 30.5509 9.10751 28.513 9.10751 25.9999ZM6.64584 25.9999C6.64584 29.8716 9.78615 33.01 13.6602 33.01C17.5342 33.01 20.6745 29.8716 20.6745 25.9999C20.6745 22.1282 17.5342 18.9898 13.6602 18.9898C9.78615 18.9898 6.64584 22.1282 6.64584 25.9999ZM19.313 18.7118C19.3128 19.0358 19.4089 19.3526 19.5889 19.6221C19.7689 19.8915 20.0248 20.1016 20.3243 20.2257C20.6238 20.3499 20.9533 20.3824 21.2713 20.3193C21.5893 20.2563 21.8815 20.1003 22.1108 19.8713C22.3402 19.6423 22.4964 19.3505 22.5598 19.0327C22.6232 18.7149 22.5908 18.3855 22.4669 18.0861C22.3429 17.7867 22.1329 17.5308 21.8634 17.3507C21.5939 17.1706 21.2771 17.0743 20.9528 17.0742H20.9522C20.5176 17.0744 20.1009 17.247 19.7935 17.554C19.4862 17.8611 19.3133 18.2775 19.313 18.7118V18.7118ZM8.14146 37.1123C6.80965 37.0517 6.08577 36.8299 5.60471 36.6426C4.96695 36.3945 4.5119 36.099 4.03347 35.6215C3.55503 35.144 3.25888 34.6896 3.01169 34.0523C2.82416 33.5717 2.60232 32.848 2.54178 31.517C2.47555 30.078 2.46233 29.6457 2.46233 26C2.46233 22.3543 2.47664 21.9232 2.54178 20.483C2.60243 19.1519 2.82591 18.4297 3.01169 17.9477C3.25997 17.3103 3.55569 16.8556 4.03347 16.3774C4.51124 15.8993 4.96585 15.6033 5.60471 15.3563C6.08555 15.1688 6.80965 14.9471 8.14146 14.8866C9.58135 14.8204 10.0139 14.8072 13.6602 14.8072C17.3065 14.8072 17.7394 14.8215 19.1805 14.8866C20.5123 14.9472 21.235 15.1706 21.7173 15.3563C22.355 15.6033 22.8101 15.8999 23.2885 16.3774C23.767 16.8549 24.062 17.3103 24.3103 17.9477C24.4978 18.4283 24.7197 19.1519 24.7802 20.483C24.8464 21.9232 24.8597 22.3543 24.8597 26C24.8597 29.6457 24.8464 30.0768 24.7802 31.517C24.7196 32.848 24.4966 33.5715 24.3103 34.0523C24.062 34.6896 23.7663 35.1444 23.2885 35.6215C22.8107 36.0985 22.355 36.3945 21.7173 36.6426C21.2364 36.8301 20.5123 37.0518 19.1805 37.1123C17.7406 37.1784 17.3081 37.1917 13.6602 37.1917C10.0123 37.1917 9.58092 37.1784 8.14146 37.1123V37.1123ZM8.02836 12.4306C6.57415 12.4968 5.58045 12.7272 4.71265 13.0647C3.81392 13.4132 3.0531 13.8807 2.29283 14.6394C1.53256 15.398 1.06593 16.1595 0.717214 17.0577C0.379534 17.9256 0.148951 18.9181 0.082726 20.3714C0.0154087 21.8271 0 22.2924 0 25.9999C0 29.7073 0.0154087 30.1727 0.082726 31.6283C0.148951 33.0818 0.379534 34.0742 0.717214 34.942C1.06593 35.8397 1.53267 36.6021 2.29283 37.3604C3.05299 38.1187 3.81392 38.5856 4.71265 38.9351C5.58209 39.2726 6.57415 39.503 8.02836 39.5692C9.48562 39.6354 9.95051 39.6519 13.6602 39.6519C17.3698 39.6519 17.8355 39.6365 19.292 39.5692C20.7463 39.503 21.7393 39.2726 22.6077 38.9351C23.5059 38.5856 24.2672 38.119 25.0275 37.3604C25.7878 36.6018 26.2534 35.8397 26.6031 34.942C26.9408 34.0742 27.1725 33.0817 27.2376 31.6283C27.3038 30.1716 27.3192 29.7073 27.3192 25.9999C27.3192 22.2924 27.3038 21.8271 27.2376 20.3714C27.1714 18.918 26.9408 17.925 26.6031 17.0577C26.2534 16.1601 25.7866 15.3992 25.0275 14.6394C24.2684 13.8795 23.5059 13.4132 22.6088 13.0647C21.7393 12.7272 20.7462 12.4957 19.2931 12.4306C17.8366 12.3644 17.3709 12.3479 13.6613 12.3479C9.9516 12.3479 9.48562 12.3633 8.02836 12.4306Z" fill="url(#paint0_radial_8_126)"/>
<path d="M9.10751 25.9999C9.10751 23.4867 11.1455 21.4489 13.6602 21.4489C16.1748 21.4489 18.2139 23.4867 18.2139 25.9999C18.2139 28.513 16.1748 30.5509 13.6602 30.5509C11.1455 30.5509 9.10751 28.513 9.10751 25.9999ZM6.64584 25.9999C6.64584 29.8716 9.78615 33.01 13.6602 33.01C17.5342 33.01 20.6745 29.8716 20.6745 25.9999C20.6745 22.1282 17.5342 18.9898 13.6602 18.9898C9.78615 18.9898 6.64584 22.1282 6.64584 25.9999ZM19.313 18.7118C19.3128 19.0358 19.4089 19.3526 19.5889 19.6221C19.7689 19.8915 20.0248 20.1016 20.3243 20.2257C20.6238 20.3499 20.9533 20.3824 21.2713 20.3193C21.5893 20.2563 21.8815 20.1003 22.1108 19.8713C22.3402 19.6423 22.4964 19.3505 22.5598 19.0327C22.6232 18.7149 22.5908 18.3855 22.4669 18.0861C22.3429 17.7867 22.1329 17.5308 21.8634 17.3507C21.5939 17.1706 21.2771 17.0743 20.9528 17.0742H20.9522C20.5176 17.0744 20.1009 17.247 19.7935 17.554C19.4862 17.8611 19.3133 18.2775 19.313 18.7118V18.7118ZM8.14146 37.1123C6.80965 37.0517 6.08577 36.8299 5.60471 36.6426C4.96695 36.3945 4.5119 36.099 4.03347 35.6215C3.55503 35.144 3.25888 34.6896 3.01169 34.0523C2.82416 33.5717 2.60232 32.848 2.54178 31.517C2.47555 30.078 2.46233 29.6457 2.46233 26C2.46233 22.3543 2.47664 21.9232 2.54178 20.483C2.60243 19.1519 2.82591 18.4297 3.01169 17.9477C3.25997 17.3103 3.55569 16.8556 4.03347 16.3774C4.51124 15.8993 4.96585 15.6033 5.60471 15.3563C6.08555 15.1688 6.80965 14.9471 8.14146 14.8866C9.58135 14.8204 10.0139 14.8072 13.6602 14.8072C17.3065 14.8072 17.7394 14.8215 19.1805 14.8866C20.5123 14.9472 21.235 15.1706 21.7173 15.3563C22.355 15.6033 22.8101 15.8999 23.2885 16.3774C23.767 16.8549 24.062 17.3103 24.3103 17.9477C24.4978 18.4283 24.7197 19.1519 24.7802 20.483C24.8464 21.9232 24.8597 22.3543 24.8597 26C24.8597 29.6457 24.8464 30.0768 24.7802 31.517C24.7196 32.848 24.4966 33.5715 24.3103 34.0523C24.062 34.6896 23.7663 35.1444 23.2885 35.6215C22.8107 36.0985 22.355 36.3945 21.7173 36.6426C21.2364 36.8301 20.5123 37.0518 19.1805 37.1123C17.7406 37.1784 17.3081 37.1917 13.6602 37.1917C10.0123 37.1917 9.58092 37.1784 8.14146 37.1123V37.1123ZM8.02836 12.4306C6.57415 12.4968 5.58045 12.7272 4.71265 13.0647C3.81392 13.4132 3.0531 13.8807 2.29283 14.6394C1.53256 15.398 1.06593 16.1595 0.717214 17.0577C0.379534 17.9256 0.148951 18.9181 0.082726 20.3714C0.0154087 21.8271 0 22.2924 0 25.9999C0 29.7073 0.0154087 30.1727 0.082726 31.6283C0.148951 33.0818 0.379534 34.0742 0.717214 34.942C1.06593 35.8397 1.53267 36.6021 2.29283 37.3604C3.05299 38.1187 3.81392 38.5856 4.71265 38.9351C5.58209 39.2726 6.57415 39.503 8.02836 39.5692C9.48562 39.6354 9.95051 39.6519 13.6602 39.6519C17.3698 39.6519 17.8355 39.6365 19.292 39.5692C20.7463 39.503 21.7393 39.2726 22.6077 38.9351C23.5059 38.5856 24.2672 38.119 25.0275 37.3604C25.7878 36.6018 26.2534 35.8397 26.6031 34.942C26.9408 34.0742 27.1725 33.0817 27.2376 31.6283C27.3038 30.1716 27.3192 29.7073 27.3192 25.9999C27.3192 22.2924 27.3038 21.8271 27.2376 20.3714C27.1714 18.918 26.9408 17.925 26.6031 17.0577C26.2534 16.1601 25.7866 15.3992 25.0275 14.6394C24.2684 13.8795 23.5059 13.4132 22.6088 13.0647C21.7393 12.7272 20.7462 12.4957 19.2931 12.4306C17.8366 12.3644 17.3709 12.3479 13.6613 12.3479C9.9516 12.3479 9.48562 12.3633 8.02836 12.4306Z" fill="url(#paint1_radial_8_126)"/>
<path d="M51.1594 37.5002L52.9531 30.8368C51.5065 28.241 51.047 25.212 51.6587 22.3055C52.2704 19.3991 53.9124 16.8101 56.2834 15.0138C58.6544 13.2174 61.5953 12.3341 64.5665 12.5261C67.5376 12.718 70.3398 13.9722 72.4587 16.0585C74.5776 18.1449 75.8712 20.9234 76.102 23.8843C76.3328 26.8452 75.4854 29.7898 73.7153 32.1778C71.9452 34.5658 69.3711 36.237 66.4654 36.8847C63.5597 37.5324 60.5172 37.1132 57.8964 35.7041L51.1594 37.5002ZM58.2212 33.2106L58.6379 33.4571C60.5362 34.5794 62.7535 35.0439 64.9441 34.778C67.1347 34.5122 69.1756 33.531 70.7488 31.9874C72.322 30.4438 73.3391 28.4245 73.6416 26.2441C73.944 24.0637 73.5149 21.8448 72.4211 19.9331C71.3272 18.0214 69.6301 16.5243 67.5942 15.6751C65.5582 14.8259 63.2979 14.6723 61.1653 15.2383C59.0327 15.8043 57.1478 17.058 55.8041 18.8041C54.4605 20.5502 53.7337 22.6907 53.737 24.8918C53.7352 26.7169 54.2412 28.5067 55.1988 30.062L55.46 30.4916L54.4573 34.2108L58.2212 33.2106Z" fill="#00D95F"/>
<g filter="url(#filter0_d_8_126)">
<path d="M113.787 40.4263C121.331 40.4263 127.447 34.3104 127.447 26.7661C127.447 19.2218 121.331 13.106 113.787 13.106C106.243 13.106 100.127 19.2218 100.127 26.7661C100.127 34.3104 106.243 40.4263 113.787 40.4263Z" fill="#34AADF"/>
<path d="M105.983 26.4669C105.983 26.4669 112.749 23.5882 115.096 22.5746C115.996 22.1691 119.047 20.8716 119.047 20.8716C119.047 20.8716 120.455 20.304 120.337 21.6825C120.298 22.2502 119.985 24.2369 119.672 26.3858C119.203 29.4268 118.695 32.7515 118.695 32.7515C118.695 32.7515 118.616 33.6841 117.951 33.8463C117.287 34.0084 116.191 33.2787 115.996 33.1164C115.839 32.9948 113.062 31.1702 112.045 30.2782C111.772 30.035 111.459 29.5485 112.084 28.9808C113.493 27.6428 115.174 25.9804 116.191 24.9262C116.661 24.4397 117.13 23.3044 115.174 24.6829C112.397 26.6697 109.659 28.5348 109.659 28.5348C109.659 28.5348 109.034 28.9402 107.86 28.5753C106.687 28.2104 105.318 27.7239 105.318 27.7239C105.318 27.7239 104.379 27.1157 105.983 26.4669Z" fill="white"/>
</g>
<defs>
<filter id="filter0_d_8_126" x="84.6593" y="0" width="58" height="58" filterUnits="userSpaceOnUse" color-interpolation-filters="sRGB">
<feFlood flood-opacity="0" result="BackgroundImageFix"/>
<feColorMatrix in="SourceAlpha" type="matrix" values="0 0 0 0 0 0 0 0 0 0 0 0 0 0 0 0 0 0 127 0" result="hardAlpha"/>
<feOffset dy="4"/>
<feGaussianBlur stdDeviation="2"/>
<feComposite in2="hardAlpha" operator="out"/>
<feColorMatrix type="matrix" values="0 0 0 0 0 0 0 0 0 0 0 0 0 0 0 0 0 0 0.25 0"/>
<feBlend mode="normal" in2="BackgroundImageFix" result="effect1_dropShadow_8_126"/>
<feBlend mode="normal" in="SourceGraphic" in2="effect1_dropShadow_8_126" result="shape"/>
</filter>
<radialGradient id="paint0_radial_8_126" cx="0" cy="0" r="1" gradientUnits="userSpaceOnUse" gradientTransform="translate(3.62967 39.7808) scale(35.6644 35.643)">
<stop offset="0.09" stop-color="#FA8F21"/>
<stop offset="0.78" stop-color="#D82D7E"/>
</radialGradient>
<radialGradient id="paint1_radial_8_126" cx="0" cy="0" r="1" gradientUnits="userSpaceOnUse" gradientTransform="translate(16.5686 41.0041) scale(28.1085 28.0916)">
<stop offset="0.64" stop-color="#8C3AAA" stop-opacity="0"/>
<stop offset="1" stop-color="#8C3AAA"/>
</radialGradient>
</defs>
</svg>
